<svg xmlns="http://www.w3.org/2000/svg" viewBox="0 0 16 16" shape-rendering="crispEdges">
  <rect width="16" height="16" fill="#0a0612"></rect>
  
  <g fill="#a855f7">
    <rect x="2" y="3" width="2" height="2"></rect>
    <rect x="4" y="2" width="2" height="2"></rect>
    <rect x="6" y="3" width="2" height="2"></rect>
    <rect x="8" y="3" width="2" height="2"></rect>
    <rect x="10" y="2" width="2" height="2"></rect>
    <rect x="12" y="3" width="2" height="2"></rect>
    <rect x="2" y="5" width="2" height="2"></rect>
    <rect x="4" y="5" width="2" height="2"></rect>
    <rect x="10" y="5" width="2" height="2"></rect>
    <rect x="12" y="5" width="2" height="2"></rect>
    <rect x="3" y="7" width="2" height="2"></rect>
    <rect x="5" y="7" width="2" height="2"></rect>
    <rect x="9" y="7" width="2" height="2"></rect>
    <rect x="11" y="7" width="2" height="2"></rect>
    <rect x="4" y="9" width="2" height="2"></rect>
    <rect x="6" y="9" width="2" height="2"></rect>
    <rect x="8" y="9" width="2" height="2"></rect>
    <rect x="10" y="9" width="2" height="2"></rect>
    <rect x="5" y="11" width="2" height="2"></rect>
    <rect x="7" y="11" width="2" height="2"></rect>
    <rect x="9" y="11" width="2" height="2"></rect>
    <rect x="6" y="13" width="4" height="1"></rect>
  </g>
  
  <g fill="#ff7a1a">
    <rect x="6" y="5" width="2" height="2"></rect>
    <rect x="8" y="5" width="2" height="2"></rect>
    <rect x="7" y="7" width="2" height="2"></rect>
  </g>
</svg>